# xmcd CD database file
#
# Track frame offsets:
#	150
#	18484
#	37770
#	54674
#	89164
#	108314
#	129844
#	145355
#	162770
#	173212
#	191307
#	206171
#	227497
#	239402
#
# Disc length: 3414 seconds
#
# Revision: 0
# Processed by: cddbd v1.5.2PL0 Copyright (c) Steve Scherf et al.
# Submitted via: CDex 1.51
#
DISCID=b80d540e
DTITLE=Ahmad Jamal - Live at The  Spotlite Club 1958 [CD1]
DYEAR=1958
DGENRE=Jazz
TTITLE0=Ahmad's Blues
TTITLE1=It Could Happen To You
TTITLE2=I Wish I Knew
TTITLE3=Autumn Leaves
TTITLE4=Stompin' At the Savoy
TTITLE5=Cheek To Cheek
TTITLE6=The Girl Next Door
TTITLE7=Secret Love
TTITLE8=Squatty Roo
TTITLE9=Taboo
TTITLE10=Autumn in New York
TTITLE11=A Gal in Calico
TTITLE12=That's All
TTITLE13=Should I ?
EXTD=YEAR: 1958
EXTT0=
EXTT1=
EXTT2=
EXTT3=
EXTT4=
EXTT5=
EXTT6=
EXTT7=
EXTT8=
EXTT9=
EXTT10=
EXTT11=
EXTT12=
EXTT13=
PLAYORDER=
